<svg width="754" height="80" viewBox="0 0 754 80" fill="none" xmlns="http://www.w3.org/2000/svg">
<g clip-path="url(#clip0_428_274)">
<path d="M30 20C24.8 20 19.91 21.33 15.64 23.67V29.54C19.7 26.68 24.65 25 30 25C43.81 25 55 36.19 55 50C55 63.81 43.81 75 30 75C16.19 75 5 63.81 5 50V0H0V50C0 66.54 13.46 80 30 80C46.54 80 60 66.54 60 50C60 33.46 46.54 20 30 20Z" fill="#231F20"/>
<path d="M95.65 20C79.11 20 65.65 33.46 65.65 50C65.65 66.54 79.11 80 95.65 80C112.19 80 125.65 66.54 125.65 50C125.65 33.46 112.19 20 95.65 20ZM95.65 75C81.84 75 70.65 63.81 70.65 50C70.65 36.19 81.84 25 95.65 25C109.46 25 120.65 36.19 120.65 50C120.65 63.81 109.46 75 95.65 75Z" fill="#231F20"/>
<path d="M161.29 20C150.86 20 141.67 25.35 136.29 33.44V20H131.29V80H136.29V50C136.29 36.19 147.48 25 161.29 25C175.1 25 186.29 36.19 186.29 50V80H191.29V50C191.29 33.46 177.83 20 161.29 20Z" fill="#231F20"/>
<path d="M226.94 20C221.74 20 216.85 21.33 212.58 23.67V29.54C216.64 26.68 221.59 25 226.94 25C240.75 25 251.94 36.19 251.94 50C251.94 63.81 240.75 75 226.94 75C213.13 75 201.94 63.81 201.94 50V0H196.94V50C196.94 66.54 210.4 80 226.94 80C243.48 80 256.94 66.54 256.94 50C256.94 33.46 243.48 20 226.94 20Z" fill="#231F20"/>
<path d="M292.59 20C276.05 20 262.59 33.46 262.59 50C262.59 66.54 276.05 80 292.59 80C309.13 80 322.59 66.54 322.59 50C322.59 33.46 309.13 20 292.59 20ZM292.59 75C278.78 75 267.59 63.81 267.59 50C267.59 36.19 278.78 25 292.59 25C306.4 25 317.59 36.19 317.59 50C317.59 63.81 306.4 75 292.59 75Z" fill="#231F20"/>
<path d="M423.88 20C418.68 20 413.79 21.33 409.52 23.67V29.54C413.58 26.68 418.53 25 423.88 25C437.69 25 448.88 36.19 448.88 50C448.88 63.81 437.69 75 423.88 75C410.07 75 398.88 63.81 398.88 50V0H393.88V50C393.88 66.54 407.34 80 423.88 80C440.42 80 453.88 66.54 453.88 50C453.88 33.46 440.42 20 423.88 20Z" fill="#231F20"/>
<path d="M489.52 20C472.98 20 459.52 33.46 459.52 50C459.52 66.54 472.98 80 489.52 80C506.06 80 519.52 66.54 519.52 50C519.52 33.46 506.06 20 489.52 20ZM489.52 75C475.71 75 464.52 63.81 464.52 50C464.52 36.19 475.71 25 489.52 25C503.33 25 514.52 36.19 514.52 50C514.52 63.81 503.33 75 489.52 75Z" fill="#231F20"/>
<path d="M555.17 20C538.63 20 525.17 33.46 525.17 50C525.17 66.54 538.63 80 555.17 80C571.71 80 585.17 66.54 585.17 50C585.17 33.46 571.71 20 555.17 20ZM555.17 75C541.36 75 530.17 63.81 530.17 50C530.17 36.19 541.36 25 555.17 25C568.98 25 580.17 36.19 580.17 50C580.17 63.81 568.98 75 555.17 75Z" fill="#231F20"/>
<path d="M358.23 20C347.8 20 338.61 25.35 333.23 33.44V20H328.23V80H333.23V50C333.23 36.19 344.42 25 358.23 25C372.04 25 383.23 36.19 383.23 50V80H388.23V50C388.23 33.46 374.77 20 358.23 20Z" fill="#231F20"/>
<path d="M632.41 80L599.53 47.13L626.66 20H619.59L596.23 43.37V0H591.23V80H596.23V50.89L625.34 80H632.41Z" fill="#231F20"/>
<path d="M696.46 50C696.46 33.46 683 20 666.46 20C649.92 20 636.46 33.46 636.46 50C636.46 66.54 649.92 80 666.46 80C670.44 80 674.23 79.22 677.7 77.81V72.33C674.32 74.04 670.5 75 666.46 75C652.65 75 641.46 63.81 641.46 50C641.46 36.19 652.65 25 666.46 25C678.55 25 688.64 33.59 690.96 45H674.26H654.86V50H674.86H691.46H696.46Z" fill="#231F20"/>
<path d="M753.05 28.55C747.64 23.27 740.25 20 732.11 20C721.68 20 712.49 25.35 707.11 33.44V20H702.11V80H707.11V50C707.11 36.19 718.3 25 732.11 25C740.88 25 748.59 29.52 753.05 36.35V28.55Z" fill="#231F20"/>
</g>
<defs>
<clipPath id="clip0_428_274">
<rect width="753.05" height="80" fill="white"/>
</clipPath>
</defs>
</svg>
