<svg width="754" height="190" viewBox="0 0 754 190" fill="none" xmlns="http://www.w3.org/2000/svg">
<g clip-path="url(#clip0_430_306)">
<path d="M328 80C344.54 80 358 66.54 358 50C358 33.46 344.54 20 328 20C322.8 20 317.91 21.33 313.64 23.67V29.54C317.7 26.68 322.65 25 328 25C341.81 25 353 36.19 353 50C353 63.81 341.81 75 328 75C314.19 75 303 63.81 303 50V0H298V50C298 66.54 311.46 80 328 80Z" fill="#231F20"/>
<path d="M328 10C322.88 10 317.98 10.98 313.48 12.74V18.16C317.9 16.14 322.82 15 328 15C347.33 15 363 30.67 363 50C363 69.33 347.33 85 328 85C308.67 85 293 69.33 293 50V0H288V50C288 72.06 305.94 90 328 90C350.06 90 368 72.06 368 50C368 27.94 350.06 10 328 10Z" fill="#231F20"/>
<path d="M328 70C339.03 70 348 61.03 348 50C348 38.97 339.03 30 328 30C316.97 30 308 38.97 308 50C308 61.03 316.97 70 328 70ZM328 35C336.28 35 343 41.72 343 50C343 58.28 336.28 65 328 65C319.72 65 313 58.28 313 50C313 41.72 319.72 35 328 35Z" fill="#231F20"/>
</g>
<g clip-path="url(#clip1_430_306)">
<path d="M30 130C24.8 130 19.91 131.33 15.64 133.67V139.54C19.7 136.68 24.65 135 30 135C43.81 135 55 146.19 55 160C55 173.81 43.81 185 30 185C16.19 185 5 173.81 5 160V110H0V160C0 176.54 13.46 190 30 190C46.54 190 60 176.54 60 160C60 143.46 46.54 130 30 130Z" fill="#231F20"/>
<path d="M95.65 130C79.11 130 65.65 143.46 65.65 160C65.65 176.54 79.11 190 95.65 190C112.19 190 125.65 176.54 125.65 160C125.65 143.46 112.19 130 95.65 130ZM95.65 185C81.84 185 70.65 173.81 70.65 160C70.65 146.19 81.84 135 95.65 135C109.46 135 120.65 146.19 120.65 160C120.65 173.81 109.46 185 95.65 185Z" fill="#231F20"/>
<path d="M161.29 130C150.86 130 141.67 135.35 136.29 143.44V130H131.29V190H136.29V160C136.29 146.19 147.48 135 161.29 135C175.1 135 186.29 146.19 186.29 160V190H191.29V160C191.29 143.46 177.83 130 161.29 130Z" fill="#231F20"/>
<path d="M226.94 130C221.74 130 216.85 131.33 212.58 133.67V139.54C216.64 136.68 221.59 135 226.94 135C240.75 135 251.94 146.19 251.94 160C251.94 173.81 240.75 185 226.94 185C213.13 185 201.94 173.81 201.94 160V110H196.94V160C196.94 176.54 210.4 190 226.94 190C243.48 190 256.94 176.54 256.94 160C256.94 143.46 243.48 130 226.94 130Z" fill="#231F20"/>
<path d="M292.59 130C276.05 130 262.59 143.46 262.59 160C262.59 176.54 276.05 190 292.59 190C309.13 190 322.59 176.54 322.59 160C322.59 143.46 309.13 130 292.59 130ZM292.59 185C278.78 185 267.59 173.81 267.59 160C267.59 146.19 278.78 135 292.59 135C306.4 135 317.59 146.19 317.59 160C317.59 173.81 306.4 185 292.59 185Z" fill="#231F20"/>
<path d="M423.88 130C418.68 130 413.79 131.33 409.52 133.67V139.54C413.58 136.68 418.53 135 423.88 135C437.69 135 448.88 146.19 448.88 160C448.88 173.81 437.69 185 423.88 185C410.07 185 398.88 173.81 398.88 160V110H393.88V160C393.88 176.54 407.34 190 423.88 190C440.42 190 453.88 176.54 453.88 160C453.88 143.46 440.42 130 423.88 130Z" fill="#231F20"/>
<path d="M489.52 130C472.98 130 459.52 143.46 459.52 160C459.52 176.54 472.98 190 489.52 190C506.06 190 519.52 176.54 519.52 160C519.52 143.46 506.06 130 489.52 130ZM489.52 185C475.71 185 464.52 173.81 464.52 160C464.52 146.19 475.71 135 489.52 135C503.33 135 514.52 146.19 514.52 160C514.52 173.81 503.33 185 489.52 185Z" fill="#231F20"/>
<path d="M555.17 130C538.63 130 525.17 143.46 525.17 160C525.17 176.54 538.63 190 555.17 190C571.71 190 585.17 176.54 585.17 160C585.17 143.46 571.71 130 555.17 130ZM555.17 185C541.36 185 530.17 173.81 530.17 160C530.17 146.19 541.36 135 555.17 135C568.98 135 580.17 146.19 580.17 160C580.17 173.81 568.98 185 555.17 185Z" fill="#231F20"/>
<path d="M358.23 130C347.8 130 338.61 135.35 333.23 143.44V130H328.23V190H333.23V160C333.23 146.19 344.42 135 358.23 135C372.04 135 383.23 146.19 383.23 160V190H388.23V160C388.23 143.46 374.77 130 358.23 130Z" fill="#231F20"/>
<path d="M632.41 190L599.53 157.13L626.66 130H619.59L596.23 153.37V110H591.23V190H596.23V160.89L625.34 190H632.41Z" fill="#231F20"/>
<path d="M696.46 160C696.46 143.46 683 130 666.46 130C649.92 130 636.46 143.46 636.46 160C636.46 176.54 649.92 190 666.46 190C670.44 190 674.23 189.22 677.7 187.81V182.33C674.32 184.04 670.5 185 666.46 185C652.65 185 641.46 173.81 641.46 160C641.46 146.19 652.65 135 666.46 135C678.55 135 688.64 143.59 690.96 155H674.26H654.86V160H674.86H691.46H696.46Z" fill="#231F20"/>
<path d="M753.05 138.55C747.64 133.27 740.25 130 732.11 130C721.68 130 712.49 135.35 707.11 143.44V130H702.11V190H707.11V160C707.11 146.19 718.3 135 732.11 135C740.88 135 748.59 139.52 753.05 146.35V138.55Z" fill="#231F20"/>
</g>
<defs>
<clipPath id="clip0_430_306">
<rect width="80" height="90" fill="white" transform="translate(288)"/>
</clipPath>
<clipPath id="clip1_430_306">
<rect width="753.05" height="80" fill="white" transform="translate(0 110)"/>
</clipPath>
</defs>
</svg>
