<svg width="577" height="170" viewBox="0 0 577 170" fill="none" xmlns="http://www.w3.org/2000/svg">
<g clip-path="url(#clip0_514_1346)">
<path d="M288 80C304.54 80 318 66.54 318 50C318 33.46 304.54 20 288 20C282.8 20 277.91 21.33 273.64 23.67V29.54C277.7 26.68 282.65 25 288 25C301.81 25 313 36.19 313 50C313 63.81 301.81 75 288 75C274.19 75 263 63.81 263 50V0H258V50C258 66.54 271.46 80 288 80Z" fill="#231F20"/>
<path d="M288 10C282.88 10 277.98 10.98 273.48 12.74V18.16C277.9 16.14 282.82 15 288 15C307.33 15 323 30.67 323 50C323 69.33 307.33 85 288 85C268.67 85 253 69.33 253 50V0H248V50C248 72.06 265.94 90 288 90C310.06 90 328 72.06 328 50C328 27.94 310.06 10 288 10Z" fill="#231F20"/>
<path d="M288 70C299.03 70 308 61.03 308 50C308 38.97 299.03 30 288 30C276.97 30 268 38.97 268 50C268 61.03 276.97 70 288 70ZM288 35C296.28 35 303 41.72 303 50C303 58.28 296.28 65 288 65C279.72 65 273 58.28 273 50C273 41.72 279.72 35 288 35Z" fill="#231F20"/>
</g>
<g clip-path="url(#clip1_514_1346)">
<path d="M30 110C24.8 110 19.91 111.33 15.64 113.67V119.54C19.7 116.68 24.65 115 30 115C43.81 115 55 126.19 55 140C55 153.81 43.81 165 30 165C16.19 165 5 153.81 5 140V90H0V140C0 156.54 13.46 170 30 170C46.54 170 60 156.54 60 140C60 123.46 46.54 110 30 110Z" fill="#231F20"/>
<path d="M95.65 110C79.11 110 65.65 123.46 65.65 140C65.65 156.54 79.11 170 95.65 170C112.19 170 125.65 156.54 125.65 140C125.65 123.46 112.19 110 95.65 110ZM95.65 165C81.84 165 70.65 153.81 70.65 140C70.65 126.19 81.84 115 95.65 115C109.46 115 120.65 126.19 120.65 140C120.65 153.81 109.46 165 95.65 165Z" fill="#231F20"/>
<path d="M161.29 110C150.86 110 141.67 115.35 136.29 123.44V110H131.29V170H136.29V140C136.29 126.19 147.48 115 161.29 115C175.1 115 186.29 126.19 186.29 140V170H191.29V140C191.29 123.46 177.83 110 161.29 110Z" fill="#231F20"/>
<path d="M226.94 110C221.74 110 216.85 111.33 212.58 113.67V119.54C216.64 116.68 221.59 115 226.94 115C240.75 115 251.94 126.19 251.94 140C251.94 153.81 240.75 165 226.94 165C213.13 165 201.94 153.81 201.94 140V90H196.94V140C196.94 156.54 210.4 170 226.94 170C243.48 170 256.94 156.54 256.94 140C256.94 123.46 243.48 110 226.94 110Z" fill="#231F20"/>
<path d="M292.59 110C276.05 110 262.59 123.46 262.59 140C262.59 156.54 276.05 170 292.59 170C309.13 170 322.59 156.54 322.59 140C322.59 123.46 309.13 110 292.59 110ZM292.59 165C278.78 165 267.59 153.81 267.59 140C267.59 126.19 278.78 115 292.59 115C306.4 115 317.59 126.19 317.59 140C317.59 153.81 306.4 165 292.59 165Z" fill="#231F20"/>
<path d="M423.88 150C418.68 150 413.79 148.67 409.52 146.33V140.46C413.58 143.32 418.53 145 423.88 145C437.69 145 448.88 133.81 448.88 120C448.88 106.19 437.69 95 423.88 95C410.07 95 398.88 106.19 398.88 120V170H393.88V120C393.88 103.46 407.34 90 423.88 90C440.42 90 453.88 103.46 453.88 120C453.88 136.54 440.42 150 423.88 150Z" fill="#231F20"/>
<path d="M546.11 110C529.57 110 516.11 123.46 516.11 140C516.11 156.54 529.57 170 546.11 170C562.65 170 576.11 156.54 576.11 140C576.11 123.46 562.65 110 546.11 110ZM546.11 165C532.3 165 521.11 153.81 521.11 140C521.11 126.19 532.3 115 546.11 115C559.92 115 571.11 126.19 571.11 140C571.11 153.81 559.92 165 546.11 165Z" fill="#231F20"/>
<path d="M358.23 110C347.8 110 338.61 115.35 333.23 123.44V110H328.23V170H333.23V140C333.23 126.19 344.42 115 358.23 115C372.04 115 383.23 126.19 383.23 140V170H388.23V140C388.23 123.46 374.77 110 358.23 110Z" fill="#231F20"/>
<path d="M510.46 118.55C505.05 113.27 497.66 110 489.52 110C479.09 110 469.9 115.35 464.52 123.44V110H459.52V170H464.52V140C464.52 126.19 475.71 115 489.52 115C498.29 115 506 119.52 510.46 126.35V118.55Z" fill="#231F20"/>
</g>
<defs>
<clipPath id="clip0_514_1346">
<rect width="80" height="90" fill="white" transform="translate(248)"/>
</clipPath>
<clipPath id="clip1_514_1346">
<rect width="576.11" height="80" fill="white" transform="translate(0 90)"/>
</clipPath>
</defs>
</svg>
