<svg width="991" height="310" viewBox="0 0 991 310" fill="none" xmlns="http://www.w3.org/2000/svg">
<rect width="991" height="310" fill="white"/>
<g clip-path="url(#clip0_428_287)">
<path d="M451 145C467.54 145 481 131.54 481 115C481 98.46 467.54 85 451 85C445.8 85 440.91 86.33 436.64 88.67V94.54C440.7 91.68 445.65 90 451 90C464.81 90 476 101.19 476 115C476 128.81 464.81 140 451 140C437.19 140 426 128.81 426 115V65H421V115C421 131.54 434.46 145 451 145Z" fill="#231F20"/>
<path d="M451 75C445.88 75 440.98 75.98 436.48 77.74V83.16C440.9 81.14 445.82 80 451 80C470.33 80 486 95.67 486 115C486 134.33 470.33 150 451 150C431.67 150 416 134.33 416 115V65H411V115C411 137.06 428.94 155 451 155C473.06 155 491 137.06 491 115C491 92.94 473.06 75 451 75Z" fill="#231F20"/>
<path d="M451 135C462.03 135 471 126.03 471 115C471 103.97 462.03 95 451 95C439.97 95 431 103.97 431 115C431 126.03 439.97 135 451 135ZM451 100C459.28 100 466 106.72 466 115C466 123.28 459.28 130 451 130C442.72 130 436 123.28 436 115C436 106.72 442.72 100 451 100Z" fill="#231F20"/>
</g>
<g clip-path="url(#clip1_428_287)">
<path d="M153 195C147.8 195 142.91 196.33 138.64 198.67V204.54C142.7 201.68 147.65 200 153 200C166.81 200 178 211.19 178 225C178 238.81 166.81 250 153 250C139.19 250 128 238.81 128 225V175H123V225C123 241.54 136.46 255 153 255C169.54 255 183 241.54 183 225C183 208.46 169.54 195 153 195Z" fill="#231F20"/>
<path d="M218.65 195C202.11 195 188.65 208.46 188.65 225C188.65 241.54 202.11 255 218.65 255C235.19 255 248.65 241.54 248.65 225C248.65 208.46 235.19 195 218.65 195ZM218.65 250C204.84 250 193.65 238.81 193.65 225C193.65 211.19 204.84 200 218.65 200C232.46 200 243.65 211.19 243.65 225C243.65 238.81 232.46 250 218.65 250Z" fill="#231F20"/>
<path d="M284.29 195C273.86 195 264.67 200.35 259.29 208.44V195H254.29V255H259.29V225C259.29 211.19 270.48 200 284.29 200C298.1 200 309.29 211.19 309.29 225V255H314.29V225C314.29 208.46 300.83 195 284.29 195Z" fill="#231F20"/>
<path d="M349.94 195C344.74 195 339.85 196.33 335.58 198.67V204.54C339.64 201.68 344.59 200 349.94 200C363.75 200 374.94 211.19 374.94 225C374.94 238.81 363.75 250 349.94 250C336.13 250 324.94 238.81 324.94 225V175H319.94V225C319.94 241.54 333.4 255 349.94 255C366.48 255 379.94 241.54 379.94 225C379.94 208.46 366.48 195 349.94 195Z" fill="#231F20"/>
<path d="M415.59 195C399.05 195 385.59 208.46 385.59 225C385.59 241.54 399.05 255 415.59 255C432.13 255 445.59 241.54 445.59 225C445.59 208.46 432.13 195 415.59 195ZM415.59 250C401.78 250 390.59 238.81 390.59 225C390.59 211.19 401.78 200 415.59 200C429.4 200 440.59 211.19 440.59 225C440.59 238.81 429.4 250 415.59 250Z" fill="#231F20"/>
<path d="M546.88 195C541.68 195 536.79 196.33 532.52 198.67V204.54C536.58 201.68 541.53 200 546.88 200C560.69 200 571.88 211.19 571.88 225C571.88 238.81 560.69 250 546.88 250C533.07 250 521.88 238.81 521.88 225V175H516.88V225C516.88 241.54 530.34 255 546.88 255C563.42 255 576.88 241.54 576.88 225C576.88 208.46 563.42 195 546.88 195Z" fill="#231F20"/>
<path d="M612.52 195C595.98 195 582.52 208.46 582.52 225C582.52 241.54 595.98 255 612.52 255C629.06 255 642.52 241.54 642.52 225C642.52 208.46 629.06 195 612.52 195ZM612.52 250C598.71 250 587.52 238.81 587.52 225C587.52 211.19 598.71 200 612.52 200C626.33 200 637.52 211.19 637.52 225C637.52 238.81 626.33 250 612.52 250Z" fill="#231F20"/>
<path d="M678.17 195C661.63 195 648.17 208.46 648.17 225C648.17 241.54 661.63 255 678.17 255C694.71 255 708.17 241.54 708.17 225C708.17 208.46 694.71 195 678.17 195ZM678.17 250C664.36 250 653.17 238.81 653.17 225C653.17 211.19 664.36 200 678.17 200C691.98 200 703.17 211.19 703.17 225C703.17 238.81 691.98 250 678.17 250Z" fill="#231F20"/>
<path d="M481.23 195C470.8 195 461.61 200.35 456.23 208.44V195H451.23V255H456.23V225C456.23 211.19 467.42 200 481.23 200C495.04 200 506.23 211.19 506.23 225V255H511.23V225C511.23 208.46 497.77 195 481.23 195Z" fill="#231F20"/>
<path d="M755.41 255L722.53 222.13L749.66 195H742.59L719.23 218.37V175H714.23V255H719.23V225.89L748.34 255H755.41Z" fill="#231F20"/>
<path d="M819.46 225C819.46 208.46 806 195 789.46 195C772.92 195 759.46 208.46 759.46 225C759.46 241.54 772.92 255 789.46 255C793.44 255 797.23 254.22 800.7 252.81V247.33C797.32 249.04 793.5 250 789.46 250C775.65 250 764.46 238.81 764.46 225C764.46 211.19 775.65 200 789.46 200C801.55 200 811.64 208.59 813.96 220H797.26H777.86V225H797.86H814.46H819.46Z" fill="#231F20"/>
<path d="M876.05 203.55C870.64 198.27 863.25 195 855.11 195C844.68 195 835.49 200.35 830.11 208.44V195H825.11V255H830.11V225C830.11 211.19 841.3 200 855.11 200C863.88 200 871.59 204.52 876.05 211.35V203.55Z" fill="#231F20"/>
</g>
<defs>
<clipPath id="clip0_428_287">
<rect width="80" height="90" fill="white" transform="translate(411 65)"/>
</clipPath>
<clipPath id="clip1_428_287">
<rect width="753.05" height="80" fill="white" transform="translate(123 175)"/>
</clipPath>
</defs>
</svg>
