<svg width="80" height="90" viewBox="0 0 80 90" fill="none" xmlns="http://www.w3.org/2000/svg">
<g clip-path="url(#clip0_428_231)">
<path d="M40 80C56.54 80 70 66.54 70 50C70 33.46 56.54 20 40 20C34.8 20 29.91 21.33 25.64 23.67V29.54C29.7 26.68 34.65 25 40 25C53.81 25 65 36.19 65 50C65 63.81 53.81 75 40 75C26.19 75 15 63.81 15 50V0H10V50C10 66.54 23.46 80 40 80Z" fill="#231F20"/>
<path d="M40 10C34.88 10 29.98 10.98 25.48 12.74V18.16C29.9 16.14 34.82 15 40 15C59.33 15 75 30.67 75 50C75 69.33 59.33 85 40 85C20.67 85 5 69.33 5 50V0H0V50C0 72.06 17.94 90 40 90C62.06 90 80 72.06 80 50C80 27.94 62.06 10 40 10Z" fill="#231F20"/>
<path d="M40 70C51.03 70 60 61.03 60 50C60 38.97 51.03 30 40 30C28.97 30 20 38.97 20 50C20 61.03 28.97 70 40 70ZM40 35C48.28 35 55 41.72 55 50C55 58.28 48.28 65 40 65C31.72 65 25 58.28 25 50C25 41.72 31.72 35 40 35Z" fill="#231F20"/>
</g>
<defs>
<clipPath id="clip0_428_231">
<rect width="80" height="90" fill="white"/>
</clipPath>
</defs>
</svg>
