<svg width="991" height="200" viewBox="0 0 991 200" fill="none" xmlns="http://www.w3.org/2000/svg">
<rect width="991" height="200" fill="white"/>
<g clip-path="url(#clip0_428_250)">
<path d="M103 135C119.54 135 133 121.54 133 105C133 88.46 119.54 75 103 75C97.8 75 92.91 76.33 88.64 78.67V84.54C92.7 81.68 97.65 80 103 80C116.81 80 128 91.19 128 105C128 118.81 116.81 130 103 130C89.19 130 78 118.81 78 105V55H73V105C73 121.54 86.46 135 103 135Z" fill="#231F20"/>
<path d="M103 65C97.88 65 92.98 65.98 88.48 67.74V73.16C92.9 71.14 97.82 70 103 70C122.33 70 138 85.67 138 105C138 124.33 122.33 140 103 140C83.67 140 68 124.33 68 105V55H63V105C63 127.06 80.94 145 103 145C125.06 145 143 127.06 143 105C143 82.94 125.06 65 103 65Z" fill="#231F20"/>
<path d="M103 125C114.03 125 123 116.03 123 105C123 93.97 114.03 85 103 85C91.97 85 83 93.97 83 105C83 116.03 91.97 125 103 125ZM103 90C111.28 90 118 96.72 118 105C118 113.28 111.28 120 103 120C94.72 120 88 113.28 88 105C88 96.72 94.72 90 103 90Z" fill="#231F20"/>
</g>
<g clip-path="url(#clip1_428_250)">
<path d="M205 85C199.8 85 194.91 86.33 190.64 88.67V94.54C194.7 91.68 199.65 90 205 90C218.81 90 230 101.19 230 115C230 128.81 218.81 140 205 140C191.19 140 180 128.81 180 115V65H175V115C175 131.54 188.46 145 205 145C221.54 145 235 131.54 235 115C235 98.46 221.54 85 205 85Z" fill="#231F20"/>
<path d="M270.65 85C254.11 85 240.65 98.46 240.65 115C240.65 131.54 254.11 145 270.65 145C287.19 145 300.65 131.54 300.65 115C300.65 98.46 287.19 85 270.65 85ZM270.65 140C256.84 140 245.65 128.81 245.65 115C245.65 101.19 256.84 90 270.65 90C284.46 90 295.65 101.19 295.65 115C295.65 128.81 284.46 140 270.65 140Z" fill="#231F20"/>
<path d="M336.29 85C325.86 85 316.67 90.35 311.29 98.44V85H306.29V145H311.29V115C311.29 101.19 322.48 90 336.29 90C350.1 90 361.29 101.19 361.29 115V145H366.29V115C366.29 98.46 352.83 85 336.29 85Z" fill="#231F20"/>
<path d="M401.94 85C396.74 85 391.85 86.33 387.58 88.67V94.54C391.64 91.68 396.59 90 401.94 90C415.75 90 426.94 101.19 426.94 115C426.94 128.81 415.75 140 401.94 140C388.13 140 376.94 128.81 376.94 115V65H371.94V115C371.94 131.54 385.4 145 401.94 145C418.48 145 431.94 131.54 431.94 115C431.94 98.46 418.48 85 401.94 85Z" fill="#231F20"/>
<path d="M467.59 85C451.05 85 437.59 98.46 437.59 115C437.59 131.54 451.05 145 467.59 145C484.13 145 497.59 131.54 497.59 115C497.59 98.46 484.13 85 467.59 85ZM467.59 140C453.78 140 442.59 128.81 442.59 115C442.59 101.19 453.78 90 467.59 90C481.4 90 492.59 101.19 492.59 115C492.59 128.81 481.4 140 467.59 140Z" fill="#231F20"/>
<path d="M598.88 85C593.68 85 588.79 86.33 584.52 88.67V94.54C588.58 91.68 593.53 90 598.88 90C612.69 90 623.88 101.19 623.88 115C623.88 128.81 612.69 140 598.88 140C585.07 140 573.88 128.81 573.88 115V65H568.88V115C568.88 131.54 582.34 145 598.88 145C615.42 145 628.88 131.54 628.88 115C628.88 98.46 615.42 85 598.88 85Z" fill="#231F20"/>
<path d="M664.52 85C647.98 85 634.52 98.46 634.52 115C634.52 131.54 647.98 145 664.52 145C681.06 145 694.52 131.54 694.52 115C694.52 98.46 681.06 85 664.52 85ZM664.52 140C650.71 140 639.52 128.81 639.52 115C639.52 101.19 650.71 90 664.52 90C678.33 90 689.52 101.19 689.52 115C689.52 128.81 678.33 140 664.52 140Z" fill="#231F20"/>
<path d="M730.17 85C713.63 85 700.17 98.46 700.17 115C700.17 131.54 713.63 145 730.17 145C746.71 145 760.17 131.54 760.17 115C760.17 98.46 746.71 85 730.17 85ZM730.17 140C716.36 140 705.17 128.81 705.17 115C705.17 101.19 716.36 90 730.17 90C743.98 90 755.17 101.19 755.17 115C755.17 128.81 743.98 140 730.17 140Z" fill="#231F20"/>
<path d="M533.23 85C522.8 85 513.61 90.35 508.23 98.44V85H503.23V145H508.23V115C508.23 101.19 519.42 90 533.23 90C547.04 90 558.23 101.19 558.23 115V145H563.23V115C563.23 98.46 549.77 85 533.23 85Z" fill="#231F20"/>
<path d="M807.41 145L774.53 112.13L801.66 85H794.59L771.23 108.37V65H766.23V145H771.23V115.89L800.34 145H807.41Z" fill="#231F20"/>
<path d="M871.46 115C871.46 98.46 858 85 841.46 85C824.92 85 811.46 98.46 811.46 115C811.46 131.54 824.92 145 841.46 145C845.44 145 849.23 144.22 852.7 142.81V137.33C849.32 139.04 845.5 140 841.46 140C827.65 140 816.46 128.81 816.46 115C816.46 101.19 827.65 90 841.46 90C853.55 90 863.64 98.59 865.96 110H849.26H829.86V115H849.86H866.46H871.46Z" fill="#231F20"/>
<path d="M928.05 93.55C922.64 88.27 915.25 85 907.11 85C896.68 85 887.49 90.35 882.11 98.44V85H877.11V145H882.11V115C882.11 101.19 893.3 90 907.11 90C915.88 90 923.59 94.52 928.05 101.35V93.55Z" fill="#231F20"/>
</g>
<defs>
<clipPath id="clip0_428_250">
<rect width="80" height="90" fill="white" transform="translate(63 55)"/>
</clipPath>
<clipPath id="clip1_428_250">
<rect width="753.05" height="80" fill="white" transform="translate(175 65)"/>
</clipPath>
</defs>
</svg>
