<svg width="577" height="80" viewBox="0 0 577 80" fill="none" xmlns="http://www.w3.org/2000/svg">
<g clip-path="url(#clip0_514_1334)">
<path d="M30 20C24.8 20 19.91 21.33 15.64 23.67V29.54C19.7 26.68 24.65 25 30 25C43.81 25 55 36.19 55 50C55 63.81 43.81 75 30 75C16.19 75 5 63.81 5 50V0H0V50C0 66.54 13.46 80 30 80C46.54 80 60 66.54 60 50C60 33.46 46.54 20 30 20Z" fill="#231F20"/>
<path d="M95.65 20C79.11 20 65.65 33.46 65.65 50C65.65 66.54 79.11 80 95.65 80C112.19 80 125.65 66.54 125.65 50C125.65 33.46 112.19 20 95.65 20ZM95.65 75C81.84 75 70.65 63.81 70.65 50C70.65 36.19 81.84 25 95.65 25C109.46 25 120.65 36.19 120.65 50C120.65 63.81 109.46 75 95.65 75Z" fill="#231F20"/>
<path d="M161.29 20C150.86 20 141.67 25.35 136.29 33.44V20H131.29V80H136.29V50C136.29 36.19 147.48 25 161.29 25C175.1 25 186.29 36.19 186.29 50V80H191.29V50C191.29 33.46 177.83 20 161.29 20Z" fill="#231F20"/>
<path d="M226.94 20C221.74 20 216.85 21.33 212.58 23.67V29.54C216.64 26.68 221.59 25 226.94 25C240.75 25 251.94 36.19 251.94 50C251.94 63.81 240.75 75 226.94 75C213.13 75 201.94 63.81 201.94 50V0H196.94V50C196.94 66.54 210.4 80 226.94 80C243.48 80 256.94 66.54 256.94 50C256.94 33.46 243.48 20 226.94 20Z" fill="#231F20"/>
<path d="M292.59 20C276.05 20 262.59 33.46 262.59 50C262.59 66.54 276.05 80 292.59 80C309.13 80 322.59 66.54 322.59 50C322.59 33.46 309.13 20 292.59 20ZM292.59 75C278.78 75 267.59 63.81 267.59 50C267.59 36.19 278.78 25 292.59 25C306.4 25 317.59 36.19 317.59 50C317.59 63.81 306.4 75 292.59 75Z" fill="#231F20"/>
<path d="M423.88 60C418.68 60 413.79 58.67 409.52 56.33V50.46C413.58 53.32 418.53 55 423.88 55C437.69 55 448.88 43.81 448.88 30C448.88 16.19 437.69 5 423.88 5C410.07 5 398.88 16.19 398.88 30V80H393.88V30C393.88 13.46 407.34 0 423.88 0C440.42 0 453.88 13.46 453.88 30C453.88 46.54 440.42 60 423.88 60Z" fill="#231F20"/>
<path d="M546.11 20C529.57 20 516.11 33.46 516.11 50C516.11 66.54 529.57 80 546.11 80C562.65 80 576.11 66.54 576.11 50C576.11 33.46 562.65 20 546.11 20ZM546.11 75C532.3 75 521.11 63.81 521.11 50C521.11 36.19 532.3 25 546.11 25C559.92 25 571.11 36.19 571.11 50C571.11 63.81 559.92 75 546.11 75Z" fill="#231F20"/>
<path d="M358.23 20C347.8 20 338.61 25.35 333.23 33.44V20H328.23V80H333.23V50C333.23 36.19 344.42 25 358.23 25C372.04 25 383.23 36.19 383.23 50V80H388.23V50C388.23 33.46 374.77 20 358.23 20Z" fill="#231F20"/>
<path d="M510.46 28.55C505.05 23.27 497.66 20 489.52 20C479.09 20 469.9 25.35 464.52 33.44V20H459.52V80H464.52V50C464.52 36.19 475.71 25 489.52 25C498.29 25 506 29.52 510.46 36.35V28.55Z" fill="#231F20"/>
</g>
<defs>
<clipPath id="clip0_514_1334">
<rect width="576.11" height="80" fill="white"/>
</clipPath>
</defs>
</svg>
